# Blender v2.77 (sub 0) OBJ File: 'Ground.blend'
# www.blender.org
o TorchTop_Cylinder.036
v -1.175182 -0.320191 70.504402
v -1.165592 -0.320191 70.509941
v -1.165592 -0.320191 70.521019
v -1.175182 -0.320191 70.526558
v -1.184772 -0.320191 70.521019
v -1.184772 -0.320191 70.509941
v -1.157500 -0.300893 70.505272
v -1.175182 -0.300893 70.495064
v -1.157500 -0.300893 70.525688
v -1.175182 -0.300893 70.535896
v -1.192864 -0.300893 70.525688
v -1.192864 -0.300893 70.505272
v -1.160261 -0.276883 70.506866
v -1.175182 -0.276883 70.498253
v -1.160261 -0.276883 70.524094
v -1.175182 -0.276883 70.532707
v -1.190103 -0.276883 70.524094
v -1.190103 -0.276883 70.506866
v -1.168069 -0.267855 70.511375
v -1.175182 -0.267855 70.507263
v -1.168069 -0.267855 70.519585
v -1.175182 -0.267855 70.523697
v -1.182295 -0.267855 70.519585
v -1.182295 -0.267855 70.511375
v -1.161167 -0.336699 70.524292
v -1.175286 -0.336699 70.532089
v -1.160723 -0.336699 70.507065
v -1.175445 -0.336699 70.498711
v -1.190265 -0.336699 70.506989
v -1.189662 -0.336699 70.523140
vn -0.4610 -0.3866 -0.7988
vn -0.9934 0.1143 0.0000
vn -0.4610 -0.3866 0.7988
vn 0.9223 -0.3866 0.0000
vn -0.9223 -0.3866 0.0000
vn 0.4610 -0.3866 -0.7988
vn 0.4610 -0.3866 0.7988
vn -0.3781 0.6542 -0.6551
vn 0.4970 0.1142 0.8602
vn 0.4968 0.1143 -0.8603
vn -0.4968 0.1143 -0.8603
vn -0.4970 0.1142 0.8602
vn 0.9934 0.1143 0.0000
vn 0.0000 1.0000 0.0000
vn -0.3784 0.6541 0.6550
vn 0.7561 0.6544 0.0000
vn -0.7561 0.6544 0.0000
vn 0.3784 0.6541 0.6550
vn 0.3781 0.6542 -0.6551
vn 0.4698 0.2844 0.8357
vn 0.9625 0.2709 0.0151
vn 0.4759 0.2825 -0.8329
vn 0.4705 -0.2992 0.8301
vn -0.9539 0.2995 0.0211
vn -0.4986 0.2666 0.8248
usemtl None
s off
f 1//1 6//1 12//1 8//1
f 12//2 11//2 17//2 18//2
f 5//3 4//3 10//3 11//3
f 3//4 2//4 7//4 9//4
f 6//5 5//5 11//5 12//5
f 2//6 1//6 8//6 7//6
f 4//7 3//7 9//7 10//7
f 14//8 18//8 24//8 20//8
f 10//9 9//9 15//9 16//9
f 7//10 8//10 14//10 13//10
f 8//11 12//11 18//11 14//11
f 11//12 10//12 16//12 17//12
f 9//13 7//13 13//13 15//13
f 19//14 20//14 24//14 23//14 22//14 21//14
f 17//15 16//15 22//15 23//15
f 15//16 13//16 19//16 21//16
f 18//17 17//17 23//17 24//17
f 16//18 15//18 21//18 22//18
f 13//19 14//19 20//19 19//19
f 3//20 4//20 26//20 25//20
f 2//21 3//21 25//21 27//21
f 1//22 2//22 27//22 28//22
f 1//23 6//23 29//23 28//23
f 5//24 6//24 29//24 30//24
f 4//25 5//25 30//25 26//25
